<?xml version="1.0" standalone="no"?>
<!DOCTYPE svg PUBLIC "-//W3C//DTD SVG 20010904//EN"
 "http://www.w3.org/TR/2001/REC-SVG-20010904/DTD/svg10.dtd">
<svg version="1.0" xmlns="http://www.w3.org/2000/svg"
 width="16.000000pt" height="16.000000pt" viewBox="0 0 16.000000 16.000000"
 preserveAspectRatio="xMidYMid meet">
<metadata>
Created by potrace 1.11, written by Peter Selinger 2001-2013
</metadata>
<g transform="translate(0.000000,16.000000) scale(0.016000,-0.016000)"
fill="#000000" stroke="none">
<path d="M430 989 c-153 -19 -301 -125 -370 -265 -135 -274 -5 -592 285 -695
77 -27 206 -29 290 -4 291 83 439 406 314 683 -88 194 -300 309 -519 281z
m200 -35 c350 -98 459 -545 194 -798 -53 -51 -168 -111 -234 -122 -162 -27
-312 22 -428 138 -117 116 -163 296 -117 455 73 254 330 398 585 327z"/>
<path d="M270 625 c-60 -90 -111 -169 -112 -176 -2 -6 2 -13 8 -16 6 -2 57 66
114 152 57 85 106 155 110 155 3 0 42 -49 85 -110 42 -60 84 -110 91 -110 16
0 19 16 4 25 -18 11 -11 35 20 68 16 18 30 35 30 40 0 28 39 -9 115 -108 84
-111 105 -131 105 -101 0 10 -166 234 -197 266 -5 5 -83 -81 -83 -91 0 -4 -7
-9 -15 -13 -10 -4 -35 23 -82 89 -36 52 -70 95 -74 95 -5 0 -58 -74 -119 -165z"/>
<path d="M365 463 c-89 -44 -94 -159 -11 -245 29 -30 140 -108 153 -108 19 1
150 109 176 147 83 117 -24 266 -146 204 -28 -14 -37 -15 -53 -5 -31 20 -86
24 -119 7z m117 -60 c23 -22 28 -24 33 -10 4 8 22 23 40 32 30 14 38 14 69 1
64 -27 67 -111 5 -176 -28 -30 -113 -90 -127 -90 -5 0 -38 21 -72 46 -102 75
-128 171 -58 214 38 23 74 17 110 -17z"/>
<path d="M157 344 c-14 -15 6 -24 54 -24 36 0 49 4 47 13 -5 13 -89 23 -101
11z"/>
<path d="M757 344 c-17 -18 -4 -25 41 -22 26 2 47 8 47 13 0 12 -77 19 -88 9z"/>
<path d="M157 234 c-16 -16 10 -24 80 -24 66 0 74 2 63 15 -13 15 -129 22
-143 9z"/>
<path d="M706 225 c-5 -14 4 -15 67 -13 90 4 95 22 6 26 -53 2 -68 0 -73 -13z"/>
</g>
</svg>
